<?xml version="1.0" encoding="utf-8"?>
<!-- Generator: Adobe Illustrator 21.1.0, SVG Export Plug-In . SVG Version: 6.00 Build 0)  -->
<svg version="1.1" xmlns="http://www.w3.org/2000/svg" xmlns:xlink="http://www.w3.org/1999/xlink" x="0px" y="0px"
	 viewBox="0 0 509.2 304.7" style="enable-background:new 0 0 509.2 304.7;" xml:space="preserve">
<style type="text/css">
	.st0{fill:#E83D30;}
	.st1{fill:#FBD646;}
</style>
<g id="Layer_1">
</g>
<g id="Layer_2">
	<path class="st0" d="M0,0.7h201.3v68.7H86v49.3h115.3v68H86V236h115.3c0,54.7,52.7,68.7,52.7,68.7H0V0.7z"/>
	<path class="st1" d="M228,0.7v68h116.5l-52.2,84l48.2,5.1c15.8,1.9,29.3,15.2,29.3,39s-14.5,39.8-39,39.8S291,206.8,291,206.8
		l-63.9,28.4c0,0,17.2,69.4,104.6,69.4s106.7-70.5,106.7-97.8c0-61-51.3-88.5-51.3-88.5L438.3,0.7H228z"/>
	<g>
		<path d="M481.8,2.4h-7.8v20h-2.6v-20h-7.8V0h18.1V2.4z"/>
		<path d="M509.2,22.4h-2.6V2.9l-7.8,17h-2.7L488.3,3v19.4h-2.6V0h3.9l7.8,16.9L505.2,0h3.9V22.4z"/>
	</g>
</g>
</svg>
